<?xml version="1.0" standalone="no"?>
<!DOCTYPE svg PUBLIC "-//W3C//DTD SVG 20010904//EN"
 "http://www.w3.org/TR/2001/REC-SVG-20010904/DTD/svg10.dtd">
<svg version="1.0" xmlns="http://www.w3.org/2000/svg"
 width="545.000000pt" height="545.000000pt" viewBox="0 0 545.000000 545.000000"
 preserveAspectRatio="xMidYMid meet">
<metadata>
Created by potrace 1.14, written by Peter Selinger 2001-2017
</metadata>
<g transform="translate(0.000000,545.000000) scale(0.100000,-0.100000)"
fill="#000000" stroke="none">
<path d="M2529 5446 c-2 -2 -37 -6 -76 -10 -86 -7 -204 -24 -253 -36 -19 -5
-46 -11 -60 -14 -55 -9 -200 -49 -285 -78 -402 -136 -746 -350 -1050 -653
-190 -189 -269 -291 -442 -570 -7 -11 -37 -67 -67 -125 -97 -189 -160 -359
-216 -580 -30 -121 -34 -140 -50 -260 -6 -41 -13 -88 -16 -105 -10 -54 -12
-448 -2 -545 8 -87 29 -229 42 -289 59 -269 137 -489 251 -709 215 -412 539
-771 926 -1025 362 -238 774 -385 1214 -434 93 -10 471 -10 565 1 442 49 852
197 1219 440 575 382 972 944 1141 1616 28 111 36 156 64 344 14 93 15 517 1
611 -46 324 -96 513 -205 775 -79 192 -240 457 -387 640 -88 111 -295 318
-403 404 -396 316 -850 511 -1355 583 -94 13 -545 28 -556 19z"/>
</g>
</svg>
